<svg xmlns="http://www.w3.org/2000/svg" viewBox="0 0 1500 860" width="1500" height="860" font-family="DejaVu Sans, Arial, sans-serif">
<defs><marker id="ah" viewBox="0 0 10 10" refX="9" refY="5" markerWidth="7" markerHeight="7" orient="auto-start-reverse"><path d="M0,0 L10,5 L0,10 z" fill="#333"/></marker></defs>
<rect width="1500" height="860" fill="#fff"/>
<text x="20" y="30" font-size="17" font-weight="bold" fill="#222">Стенд на отладочных платах (часть А): общий вид</text>
<rect x="20" y="70" width="220" height="150" rx="7" fill="#d8e7fa" stroke="#1f5fa8" stroke-width="1.6"/>
<text x="130.0" y="117.5" font-size="13.5" text-anchor="middle" fill="#222" font-weight="bold">ПК</text>
<text x="130.0" y="133.5" font-size="11.5" text-anchor="middle" fill="#333">Gowin EDA, openFPGALoader</text>
<text x="130.0" y="149.5" font-size="11.5" text-anchor="middle" fill="#333">load.py — прошивка CPU</text>
<text x="130.0" y="165.5" font-size="11.5" text-anchor="middle" fill="#333">консоль UART 1 Мбод</text>
<text x="130.0" y="181.5" font-size="11.5" text-anchor="middle" fill="#333">hil.py — сценарии + анализ</text>
<rect x="20" y="250" width="220" height="80" rx="7" fill="#e3e8ef" stroke="#475569" stroke-width="1.6"/>
<text x="130.0" y="278.5" font-size="13.5" text-anchor="middle" fill="#222" font-weight="bold">Звуковая карта</text>
<text x="130.0" y="294.5" font-size="11.5" text-anchor="middle" fill="#333">вход по пост. току</text>
<text x="130.0" y="310.5" font-size="11.5" text-anchor="middle" fill="#333">(или осциллограф с записью)</text>
<rect x="20" y="360" width="220" height="70" rx="7" fill="#e3e8ef" stroke="#475569" stroke-width="1.6"/>
<text x="130.0" y="391.5" font-size="13.5" text-anchor="middle" fill="#222" font-weight="bold">USB-MIDI интерфейс</text>
<text x="130.0" y="407.5" font-size="11.5" text-anchor="middle" fill="#333">стимулы hil.py</text>
<rect x="20" y="450" width="220" height="60" rx="7" fill="#e3e8ef" stroke="#475569" stroke-width="1.6"/>
<text x="130.0" y="484.5" font-size="13.5" text-anchor="middle" fill="#222" font-weight="bold">MIDI-клавиатура</text>
<rect x="270" y="55" width="520" height="640" rx="10" fill="none" stroke="#6a3fa0" stroke-width="1.4" stroke-dasharray="7 5"/>
<text x="280" y="72" font-size="12.5" text-anchor="start" fill="#6a3fa0" font-weight="bold">Цифровая часть (3.3 В от Tang Nano / 3V3 стенда)</text>
<rect x="410" y="250" width="240" height="230" rx="7" fill="#ece0f8" stroke="#6a3fa0" stroke-width="1.6"/>
<text x="530.0" y="329.5" font-size="13.5" text-anchor="middle" fill="#222" font-weight="bold">Tang Nano 20K</text>
<text x="530.0" y="345.5" font-size="11.5" text-anchor="middle" fill="#333">synth_core / stub_core / mono_core</text>
<text x="530.0" y="361.5" font-size="11.5" text-anchor="middle" fill="#333">встроенная SDRAM 64 Мбит</text>
<text x="530.0" y="377.5" font-size="11.5" text-anchor="middle" fill="#333">слот SD-карты</text>
<text x="530.0" y="393.5" font-size="11.5" text-anchor="middle" fill="#333">BL702: JTAG + UART</text>
<text x="530.0" y="409.5" font-size="11.5" text-anchor="middle" fill="#333">выводы — таблица Ж0.1</text>
<rect x="290" y="80" width="200" height="80" rx="7" fill="#d9f2d9" stroke="#2e7d32" stroke-width="1.6"/>
<text x="390.0" y="108.5" font-size="13.5" text-anchor="middle" fill="#222" font-weight="bold">PCM5102A</text>
<text x="390.0" y="124.5" font-size="11.5" text-anchor="middle" fill="#333">модуль (GY-PCM5102)</text>
<text x="390.0" y="140.5" font-size="11.5" text-anchor="middle" fill="#333">I2S, XSMT</text>
<rect x="560" y="80" width="200" height="80" rx="7" fill="#d9f2d9" stroke="#2e7d32" stroke-width="1.6"/>
<text x="660.0" y="108.5" font-size="13.5" text-anchor="middle" fill="#222" font-weight="bold">SPI-флеш W25Q64</text>
<text x="660.0" y="124.5" font-size="11.5" text-anchor="middle" fill="#333">модуль</text>
<text x="660.0" y="140.5" font-size="11.5" text-anchor="middle" fill="#333">прошивка + калибровки</text>
<rect x="290" y="560" width="220" height="110" rx="7" fill="#fde2c8" stroke="#b5651d" stroke-width="1.6"/>
<text x="400.0" y="603.5" font-size="13.5" text-anchor="middle" fill="#222" font-weight="bold">MIDI-вход</text>
<text x="400.0" y="619.5" font-size="11.5" text-anchor="middle" fill="#333">TRS-гнездо</text>
<text x="400.0" y="635.5" font-size="11.5" text-anchor="middle" fill="#333">мост 2×BAT54S + H11L1</text>
<rect x="540" y="520" width="230" height="160" rx="7" fill="#fde2c8" stroke="#b5651d" stroke-width="1.6"/>
<text x="655.0" y="580.5" font-size="13.5" text-anchor="middle" fill="#222" font-weight="bold">Панель</text>
<text x="655.0" y="596.5" font-size="11.5" text-anchor="middle" fill="#333">MCP3208 + 8 потенциометров</text>
<text x="655.0" y="612.5" font-size="11.5" text-anchor="middle" fill="#333">4 × EC11 (подтяжки, RC)</text>
<text x="655.0" y="628.5" font-size="11.5" text-anchor="middle" fill="#333">ST7789 1.14″ (модуль)</text>
<rect x="820" y="55" width="420" height="640" rx="10" fill="none" stroke="#b5651d" stroke-width="1.4" stroke-dasharray="7 5"/>
<text x="830" y="72" font-size="12.5" text-anchor="start" fill="#b5651d" font-weight="bold">Аналоговая часть (лаб. источник ±15 В, 3V3A)</text>
<rect x="850" y="90" width="360" height="120" rx="7" fill="#fde2c8" stroke="#b5651d" stroke-width="1.6"/>
<text x="1030.0" y="130.5" font-size="13.5" text-anchor="middle" fill="#222" font-weight="bold">Входные каскады ВХ1, ВХ2</text>
<text x="1030.0" y="146.5" font-size="11.5" text-anchor="middle" fill="#333">сумматор-сдвиг 100k/20k/24.9k</text>
<text x="1030.0" y="162.5" font-size="11.5" text-anchor="middle" fill="#333">ФНЧ Саллена–Ки 20 кГц, OPA2350</text>
<text x="1030.0" y="178.5" font-size="11.5" text-anchor="middle" fill="#333">REF3025 2.5 В</text>
<rect x="850" y="240" width="360" height="70" rx="7" fill="#fde2c8" stroke="#b5651d" stroke-width="1.6"/>
<text x="1030.0" y="271.5" font-size="13.5" text-anchor="middle" fill="#222" font-weight="bold">2 × AD7091R</text>
<text x="1030.0" y="287.5" font-size="11.5" text-anchor="middle" fill="#333">на переходниках MSOP-10 → DIP</text>
<rect x="850" y="340" width="360" height="120" rx="7" fill="#fde2c8" stroke="#b5651d" stroke-width="1.6"/>
<text x="1030.0" y="380.5" font-size="13.5" text-anchor="middle" fill="#222" font-weight="bold">Выходные каскады</text>
<text x="1030.0" y="396.5" font-size="11.5" text-anchor="middle" fill="#333">OPA2171 ×4.24 → ВЫХ, ВЫХ2</text>
<text x="1030.0" y="412.5" font-size="11.5" text-anchor="middle" fill="#333">ГРОМКОСТЬ 10к</text>
<text x="1030.0" y="428.5" font-size="11.5" text-anchor="middle" fill="#333">LM339: индикаторы ±10 В</text>
<rect x="850" y="490" width="360" height="80" rx="7" fill="#fde2c8" stroke="#b5651d" stroke-width="1.6"/>
<text x="1030.0" y="526.5" font-size="13.5" text-anchor="middle" fill="#222" font-weight="bold">Вход СИНХР</text>
<text x="1030.0" y="542.5" font-size="11.5" text-anchor="middle" fill="#333">22k + BAT54S + 74LVC1G17</text>
<rect x="850" y="600" width="360" height="70" rx="7" fill="#e3e8ef" stroke="#475569" stroke-width="1.6"/>
<text x="1030.0" y="631.5" font-size="13.5" text-anchor="middle" fill="#222" font-weight="bold">Лабораторный источник</text>
<text x="1030.0" y="647.5" font-size="11.5" text-anchor="middle" fill="#333">+5 В, ±15 В, ограничение тока</text>
<rect x="1270" y="90" width="210" height="90" rx="7" fill="#e3e8ef" stroke="#475569" stroke-width="1.6"/>
<text x="1375.0" y="123.5" font-size="13.5" text-anchor="middle" fill="#222" font-weight="bold">Генератор / АВК-6</text>
<text x="1375.0" y="139.5" font-size="11.5" text-anchor="middle" fill="#333">±10 В, 0.1 Гц…20 кГц</text>
<text x="1375.0" y="155.5" font-size="11.5" text-anchor="middle" fill="#333">ТТЛ для СИНХР</text>
<rect x="1270" y="230" width="210" height="90" rx="7" fill="#e3e8ef" stroke="#475569" stroke-width="1.6"/>
<text x="1375.0" y="271.5" font-size="13.5" text-anchor="middle" fill="#222" font-weight="bold">Осциллограф</text>
<text x="1375.0" y="287.5" font-size="11.5" text-anchor="middle" fill="#333">2–4 канала, БПФ</text>
<rect x="1270" y="350" width="210" height="70" rx="7" fill="#e3e8ef" stroke="#475569" stroke-width="1.6"/>
<text x="1375.0" y="381.5" font-size="13.5" text-anchor="middle" fill="#222" font-weight="bold">Мультиметр</text>
<text x="1375.0" y="397.5" font-size="11.5" text-anchor="middle" fill="#333">4½ разряда</text>
<rect x="1270" y="450" width="210" height="70" rx="7" fill="#e3e8ef" stroke="#475569" stroke-width="1.6"/>
<text x="1375.0" y="481.5" font-size="13.5" text-anchor="middle" fill="#222" font-weight="bold">Нагрузка</text>
<text x="1375.0" y="497.5" font-size="11.5" text-anchor="middle" fill="#333">2 кОм ‖ 1 нФ на ВЫХ</text>
<polyline points="240,197.5 440,197.5 440,250" fill="none" stroke="#333" stroke-width="1.6" marker-start="url(#ah)" marker-end="url(#ah)"/>
<text x="330" y="192" font-size="11" text-anchor="middle" fill="#444">USB: JTAG + UART</text>
<polyline points="470.0,250 470,160" fill="none" stroke="#333" stroke-width="1.6" marker-end="url(#ah)"/>
<text x="500" y="215" font-size="11" text-anchor="middle" fill="#444">I2S</text>
<polyline points="590.0,250 590,160" fill="none" stroke="#333" stroke-width="1.6" marker-start="url(#ah)" marker-end="url(#ah)"/>
<text x="615" y="215" font-size="11" text-anchor="middle" fill="#444">SPI</text>
<polyline points="422.0,560 420,480" fill="none" stroke="#333" stroke-width="1.6" marker-end="url(#ah)"/>
<text x="380" y="530" font-size="11" text-anchor="middle" fill="#444">midi_rx</text>
<polyline points="609.0,520 610,480" fill="none" stroke="#333" stroke-width="1.6" marker-start="url(#ah)" marker-end="url(#ah)"/>
<text x="660" y="505" font-size="11" text-anchor="middle" fill="#444">SPI ×2, 12 линий</text>
<polyline points="850,275.0 720,275 720,330 650,330" fill="none" stroke="#333" stroke-width="1.6" marker-end="url(#ah)"/>
<text x="760" y="268" font-size="11" text-anchor="middle" fill="#444">SPI, CONVST</text>
<polyline points="490,150 525,150 525,185 780,185 780,390 850,400.0" fill="none" stroke="#333" stroke-width="1.6" marker-end="url(#ah)"/>
<text x="700" y="180" font-size="11" text-anchor="middle" fill="#444">DAC_L, DAC_R</text>
<polyline points="850,530.0 700,530 700,450 650,450" fill="none" stroke="#333" stroke-width="1.6" marker-end="url(#ah)"/>
<text x="750" y="525" font-size="11" text-anchor="middle" fill="#444">sync_in</text>
<polyline points="1030.0,210 1030.0,240" fill="none" stroke="#333" stroke-width="1.6" marker-end="url(#ah)"/>
<polyline points="1270,135.0 1210,138.0" fill="none" stroke="#333" stroke-width="1.6" marker-end="url(#ah)"/>
<text x="1240.0" y="131.5" font-size="11" text-anchor="middle" fill="#444">ВХ1, ВХ2</text>
<polyline points="1270,165 1240,165 1240,530 1210,530.0" fill="none" stroke="#333" stroke-width="1.6" marker-end="url(#ah)"/>
<text x="1236" y="588" font-size="11" text-anchor="end" fill="#444">СИНХР</text>
<polyline points="1210,400.0 1250,400 1250,485 1270,485.0" fill="none" stroke="#333" stroke-width="1.6" marker-end="url(#ah)"/>
<polyline points="240,480.0 265,480 265,615 290,615.0" fill="none" stroke="#333" stroke-width="1.6" marker-end="url(#ah)"/>
<polyline points="240,395.0 255,395 255,600 290,600" fill="none" stroke="#333" stroke-width="1.6" stroke-dasharray="5 3" marker-end="url(#ah)"/>
<polyline points="1210,370.0 1255,370 1255,275 1270,275.0" fill="none" stroke="#333" stroke-width="1.6" stroke-dasharray="5 3" marker-end="url(#ah)"/>
<polyline points="290,140 255,140 255,290 240,290.0" fill="none" stroke="#333" stroke-width="1.6" stroke-dasharray="5 3" marker-end="url(#ah)"/>
<text x="200" y="245" font-size="11" text-anchor="middle" fill="#444">линейный выход модуля</text>
<polyline points="850,635.0 835,635 835,150 850,150" fill="none" stroke="#333" stroke-width="1.6" stroke-dasharray="5 3" marker-end="url(#ah)"/>
<text x="20" y="740" font-size="12" text-anchor="start" fill="#444">Сплошные стрелки — сигналы; пунктир — питание, измерения и стимулы. Своя схема на макетке — те же номиналы, что в hw/schematic.md;</text>
<text x="20" y="758" font-size="12" text-anchor="start" fill="#444">на переходниках — микросхемы без DIP-корпуса (AD7091R, OPA2171). Земли стенда, источника и приборов — в одной точке.</text>
<text x="20" y="850" font-size="11.5" fill="#555">Обозначения:</text>
<rect x="110" y="838" width="18" height="14" rx="3" fill="#ece0f8" stroke="#6a3fa0"/>
<text x="134" y="849.5" font-size="11.5" fill="#333">ПЛИС / Tang Nano 20K</text>
<rect x="284" y="838" width="18" height="14" rx="3" fill="#d9f2d9" stroke="#2e7d32"/>
<text x="308" y="849.5" font-size="11.5" fill="#333">готовый модуль</text>
<rect x="416" y="838" width="18" height="14" rx="3" fill="#fde2c8" stroke="#b5651d"/>
<text x="440" y="849.5" font-size="11.5" fill="#333">макетка (своя схема)</text>
<rect x="590" y="838" width="18" height="14" rx="3" fill="#fbe4ec" stroke="#a33a63"/>
<text x="614" y="849.5" font-size="11.5" fill="#333">несущая плата блока</text>
<rect x="757" y="838" width="18" height="14" rx="3" fill="#e3e8ef" stroke="#475569"/>
<text x="781" y="849.5" font-size="11.5" fill="#333">прибор</text>
<rect x="833" y="838" width="18" height="14" rx="3" fill="#d8e7fa" stroke="#1f5fa8"/>
<text x="857" y="849.5" font-size="11.5" fill="#333">ПК</text>
<rect x="881" y="838" width="18" height="14" rx="3" fill="#fff3b0" stroke="#9a7d00"/>
<text x="905" y="849.5" font-size="11.5" fill="#333">АВК-6</text>
<rect x="950" y="838" width="34" height="14" rx="7" fill="#c62828"/><text x="967" y="849" font-size="10" text-anchor="middle" fill="#fff" font-weight="bold">А2.1</text><text x="992" y="849.5" font-size="11.5" fill="#333">точка проверки (пункт таблицы)</text>
</svg>