<svg xmlns="http://www.w3.org/2000/svg" viewBox="0 0 1400 560" width="1400" height="560" font-family="DejaVu Sans, Arial, sans-serif">
<defs><marker id="ah" viewBox="0 0 10 10" refX="9" refY="5" markerWidth="7" markerHeight="7" orient="auto-start-reverse"><path d="M0,0 L10,5 L0,10 z" fill="#333"/></marker></defs>
<rect width="1400" height="560" fill="#fff"/>
<text x="20" y="30" font-size="17" font-weight="bold" fill="#222">Б4. Готовый блок на столе: проставка вместо корзины АВК</text>
<rect x="20" y="90" width="240" height="100" rx="7" fill="#e3e8ef" stroke="#475569" stroke-width="1.6"/>
<text x="140.0" y="128.5" font-size="13.5" text-anchor="middle" fill="#222" font-weight="bold">Лаб. источник</text>
<text x="140.0" y="144.5" font-size="11.5" text-anchor="middle" fill="#333">+5 В, ±15 В</text>
<text x="140.0" y="160.5" font-size="11.5" text-anchor="middle" fill="#333">ток и пульсации — как у АВК</text>
<rect x="20" y="230" width="240" height="100" rx="7" fill="#e3e8ef" stroke="#475569" stroke-width="1.6"/>
<text x="140.0" y="276.5" font-size="13.5" text-anchor="middle" fill="#222" font-weight="bold">Генератор</text>
<text x="140.0" y="292.5" font-size="11.5" text-anchor="middle" fill="#333">ВХ1, ВХ2, СИНХР</text>
<rect x="20" y="370" width="240" height="110" rx="7" fill="#d8e7fa" stroke="#1f5fa8" stroke-width="1.6"/>
<text x="140.0" y="413.5" font-size="13.5" text-anchor="middle" fill="#222" font-weight="bold">ПК</text>
<text x="140.0" y="429.5" font-size="11.5" text-anchor="middle" fill="#333">USB-C Tang Nano: консоль</text>
<text x="140.0" y="445.5" font-size="11.5" text-anchor="middle" fill="#333">hil.py, USB-MIDI</text>
<rect x="330" y="90" width="250" height="120" rx="7" fill="#fff3b0" stroke="#9a7d00" stroke-width="1.6"/>
<text x="455.0" y="130.5" font-size="13.5" text-anchor="middle" fill="#222" font-weight="bold">Проставка (ремонтный модуль)</text>
<text x="455.0" y="146.5" font-size="11.5" text-anchor="middle" fill="#333">ответный нижний разъём</text>
<text x="455.0" y="162.5" font-size="11.5" text-anchor="middle" fill="#333">блок выше корпуса:</text>
<text x="455.0" y="178.5" font-size="11.5" text-anchor="middle" fill="#333">доступ к USB-C и SD</text>
<rect x="650" y="90" width="380" height="380" rx="7" fill="#fbe4ec" stroke="#a33a63" stroke-width="1.6"/>
<text x="840.0" y="220.5" font-size="13.5" text-anchor="middle" fill="#222" font-weight="bold">Готовый блок</text>
<text x="840.0" y="236.5" font-size="11.5" text-anchor="middle" fill="#333">несущая плата + Tang Nano 20K</text>
<text x="840.0" y="252.5" font-size="11.5" text-anchor="middle" fill="#333">панель 120 × 90 мм</text>
<text x="840.0" y="268.5" font-size="11.5" text-anchor="middle" fill="#333"></text>
<text x="840.0" y="284.5" font-size="11.5" text-anchor="middle" fill="#333">штыри 2РМТ: ВХ1, ВХ2, ВЫХ, ВЫХ2</text>
<text x="840.0" y="300.5" font-size="11.5" text-anchor="middle" fill="#333">MIDI TRS, НАУШН./ЛИН.</text>
<text x="840.0" y="316.5" font-size="11.5" text-anchor="middle" fill="#333">ручки, энкодеры, дисплей, LED ±10</text>
<text x="840.0" y="332.5" font-size="11.5" text-anchor="middle" fill="#333"></text>
<text x="840.0" y="348.5" font-size="11.5" text-anchor="middle" fill="#333">контрольные точки TPxxx</text>
<rect x="1100" y="90" width="280" height="150" rx="7" fill="#e3e8ef" stroke="#475569" stroke-width="1.6"/>
<text x="1240.0" y="145.5" font-size="13.5" text-anchor="middle" fill="#222" font-weight="bold">Осциллограф + мультиметр</text>
<text x="1240.0" y="161.5" font-size="11.5" text-anchor="middle" fill="#333">шум выходов и входов</text>
<text x="1240.0" y="177.5" font-size="11.5" text-anchor="middle" fill="#333">наводки SDRAM / дисплея</text>
<text x="1240.0" y="193.5" font-size="11.5" text-anchor="middle" fill="#333">пороги индикаторов</text>
<rect x="1100" y="280" width="280" height="80" rx="7" fill="#e3e8ef" stroke="#475569" stroke-width="1.6"/>
<text x="1240.0" y="316.5" font-size="13.5" text-anchor="middle" fill="#222" font-weight="bold">Наушники 32 / 250 Ом</text>
<text x="1240.0" y="332.5" font-size="11.5" text-anchor="middle" fill="#333">и линейный вход</text>
<rect x="1100" y="390" width="280" height="80" rx="7" fill="#e3e8ef" stroke="#475569" stroke-width="1.6"/>
<text x="1240.0" y="426.5" font-size="13.5" text-anchor="middle" fill="#222" font-weight="bold">Звуковая карта</text>
<text x="1240.0" y="442.5" font-size="11.5" text-anchor="middle" fill="#333">ВЫХ, ВЫХ2, НАУШН./ЛИН.</text>
<polyline points="260,140.0 330,129.6" fill="none" stroke="#333" stroke-width="1.6" marker-end="url(#ah)"/>
<polyline points="580,150.0 650,139.4" fill="none" stroke="#333" stroke-width="1.6" marker-end="url(#ah)"/>
<text x="615.0" y="139.7" font-size="11" text-anchor="middle" fill="#444">нижний разъём</text>
<polyline points="260,280.0 620,280 650,280" fill="none" stroke="#333" stroke-width="1.6" marker-end="url(#ah)"/>
<text x="440.0" y="275.0" font-size="11" text-anchor="middle" fill="#444">на штыри</text>
<polyline points="260,425.0 620,425 650,425" fill="none" stroke="#333" stroke-width="1.6" marker-end="url(#ah)"/>
<text x="440.0" y="420.0" font-size="11" text-anchor="middle" fill="#444">USB-C, MIDI</text>
<polyline points="1030,166.0 1100,180.0" fill="none" stroke="#333" stroke-width="1.6" marker-end="url(#ah)"/>
<polyline points="1030,299.0 1100,320.0" fill="none" stroke="#333" stroke-width="1.6" marker-end="url(#ah)"/>
<polyline points="1030,413.0 1100,438.0" fill="none" stroke="#333" stroke-width="1.6" marker-end="url(#ah)"/>
<rect x="431.1" y="225" width="37.8" height="18" rx="9" fill="#c62828"/>
<text x="450" y="238.5" font-size="11" text-anchor="middle" fill="#fff" font-weight="bold">Б4.1</text>
<rect x="821.1" y="480" width="37.8" height="18" rx="9" fill="#c62828"/>
<text x="840" y="493.5" font-size="11" text-anchor="middle" fill="#fff" font-weight="bold">Б4.2</text>
<rect x="1221.1" y="250" width="37.8" height="18" rx="9" fill="#c62828"/>
<text x="1240" y="263.5" font-size="11" text-anchor="middle" fill="#fff" font-weight="bold">Б4.3</text>
<rect x="1221.1" y="370" width="37.8" height="18" rx="9" fill="#c62828"/>
<text x="1240" y="383.5" font-size="11" text-anchor="middle" fill="#fff" font-weight="bold">Б4.4</text>
<rect x="1221.1" y="480" width="37.8" height="18" rx="9" fill="#c62828"/>
<text x="1240" y="493.5" font-size="11" text-anchor="middle" fill="#fff" font-weight="bold">Б4.5</text>
<text x="20" y="550" font-size="11.5" fill="#555">Обозначения:</text>
<rect x="110" y="538" width="18" height="14" rx="3" fill="#ece0f8" stroke="#6a3fa0"/>
<text x="134" y="549.5" font-size="11.5" fill="#333">ПЛИС / Tang Nano 20K</text>
<rect x="284" y="538" width="18" height="14" rx="3" fill="#d9f2d9" stroke="#2e7d32"/>
<text x="308" y="549.5" font-size="11.5" fill="#333">готовый модуль</text>
<rect x="416" y="538" width="18" height="14" rx="3" fill="#fde2c8" stroke="#b5651d"/>
<text x="440" y="549.5" font-size="11.5" fill="#333">макетка (своя схема)</text>
<rect x="590" y="538" width="18" height="14" rx="3" fill="#fbe4ec" stroke="#a33a63"/>
<text x="614" y="549.5" font-size="11.5" fill="#333">несущая плата блока</text>
<rect x="757" y="538" width="18" height="14" rx="3" fill="#e3e8ef" stroke="#475569"/>
<text x="781" y="549.5" font-size="11.5" fill="#333">прибор</text>
<rect x="833" y="538" width="18" height="14" rx="3" fill="#d8e7fa" stroke="#1f5fa8"/>
<text x="857" y="549.5" font-size="11.5" fill="#333">ПК</text>
<rect x="881" y="538" width="18" height="14" rx="3" fill="#fff3b0" stroke="#9a7d00"/>
<text x="905" y="549.5" font-size="11.5" fill="#333">АВК-6</text>
<rect x="950" y="538" width="34" height="14" rx="7" fill="#c62828"/><text x="967" y="549" font-size="10" text-anchor="middle" fill="#fff" font-weight="bold">А2.1</text><text x="992" y="549.5" font-size="11.5" fill="#333">точка проверки (пункт таблицы)</text>
</svg>